<svg width="15" height="18" viewBox="0 0 15 18" fill="none" xmlns="http://www.w3.org/2000/svg">
<path d="M8.95833 0.849609V4.29173C8.95833 4.75844 8.95833 4.99179 9.04916 5.17005C9.12906 5.32685 9.25654 5.45434 9.41334 5.53423C9.5916 5.62506 9.82496 5.62506 10.2917 5.62506H13.7338M7.29167 13.9583V8.95833M4.79167 11.4583H9.79167M8.95833 0.625H4.625C3.22487 0.625 2.5248 0.625 1.99002 0.897484C1.51962 1.13717 1.13717 1.51962 0.897484 1.99002C0.625 2.5248 0.625 3.22487 0.625 4.625V13.2917C0.625 14.6918 0.625 15.3919 0.897484 15.9266C1.13717 16.397 1.51962 16.7795 1.99002 17.0192C2.5248 17.2917 3.22487 17.2917 4.625 17.2917H9.95833C11.3585 17.2917 12.0585 17.2917 12.5933 17.0192C13.0637 16.7795 13.4462 16.397 13.6858 15.9266C13.9583 15.3919 13.9583 14.6918 13.9583 13.2917V5.625L8.95833 0.625Z" stroke="#9C9C9C" stroke-width="1.25" stroke-linecap="round" stroke-linejoin="round"/>
</svg>
